# xmcd
#
# Track frame offsets:
#	150
#	34060
#	50257
#	65410
#	78572
#	88057
#	100207
#	121665
#	137820
#	158372
#	174170
#	189625
#	205667
#	217210
#
# Disc length: 3065 seconds
#
# Revision: 0
# Processed by: cddbd v1.5.2PL0 Copyright (c) Steve Scherf et al.
# Submitted via: EasyCDDAExtractor 16.0.6.1
#
DISCID=b80bf70e
DTITLE=Συλλογικός δίσκος - Καφέ Αμάν Αμέρικα
DYEAR=1995
DGENRE=Ρεμπέτικη
TTITLE0=Μανινάκης Γρηγόρης-Παϊδούση Άννα - Esagogi (O Tzanetos sto radio, Grin
TTITLE0=glish οργ.,Me tsepes adiannes)[ΓΚατσαρού,1934]
TTITLE1=Μανινάκης Γρηγόρης-Κοντός Λούης - O Pinoklis [Δημοσθένη Ζάττα, Νέα Υόρ
TTITLE1=κη 1928]
TTITLE2=Μανινάκης Γρηγόρης - Giati glyko mou sweet heart [Αργύρη Γιαμπουράνη, 
TTITLE2=Νέα Υόρκη 1949]
TTITLE3=Παϊδούση Άννα - E barbounara [παραδοσιακό, Νέα Υόρκη 1923]
TTITLE4=Μανινάκης Γρηγόρης - O koumartzis [Χαρίλαου Κρητικού, Νέα Υόρκη 1939]
TTITLE5=Παϊδούση Άννα - Plenty money tora o Giannos [Λέλα Μαρτίνη, Νέα Υόρκη 1
TTITLE5=954]
TTITLE6=Μανινάκης Γρηγόρης - Imouna mortis mia fora [Δημοσθένη Ζάττα, Νέα Υόρκ
TTITLE6=η 1929]
TTITLE7=Παϊδούση Άννα - Pio ein' to giatriko [Δημοσθένη Ζάττα, Νέα Υόρκη 1928]
TTITLE8=Μανινάκης Γρηγόρης - E Amerikana [Νέα Υόρκη 1927]
TTITLE9=Μανινάκης Γρηγόρης - To West [Σικάγο 1935]
TTITLE10=Μανινάκης Γρηγόρης - To misteki [Αργύρη Γιαμπουράνη, Νέα Υόρκη 1949]
TTITLE11=Παϊδούση Άννα - Alogata [Αντώνη Σακελλαρίου, Νέα Υόρκη 1928]
TTITLE12=Παϊδούση Άννα - To sigaretto [Νέα Υόρκη 1927]
TTITLE13=Μανινάκης Γρηγόρης - Pyjames [Νέα Υόρκη 1934]
EXTD=
EXTT0=
EXTT1=
EXTT2=
EXTT3=
EXTT4=
EXTT5=
EXTT6=
EXTT7=
EXTT8=
EXTT9=
EXTT10=
EXTT11=
EXTT12=
EXTT13=
PLAYORDER=
